# AST/ASF file generated using VICON BodyLanguage
# -----------------------------------------------
:version 1.10
:name VICON
:units
  mass 1.0
  length 0.45
  angle deg
:documentation
   .ast/.asf automatically generated from VICON data using
   VICON BodyBuilder and BodyLanguage model FoxedUp or BRILLIANT.MOD
:root
   order TX TY TZ RX RY RZ
   axis XYZ
   position 0 0 0  
   orientation 0 0 0 
:bonedata
  begin
     id 1 
     name lhipjoint
     direction 0.714689 -0.624256 0.315473 
     length 2.45343 
     axis 0 0 0  XYZ
  end
  begin
     id 2 
     name lfemur
     direction 0.34202 -0.939693 0  
     length 6.59069  
     axis 0 0 20  XYZ
    dof rx ry rz
    limits (-160.0 20.0)
           (-70.0 70.0)
           (-60.0 70.0)
  end
  begin
     id 3 
     name ltibia
     direction 0.34202 -0.939693 0   
     length 6.73476   
     axis 0 0 20   XYZ
    dof rx
    limits (-10.0 170.0)
  end
  begin
     id 4 
     name lfoot
     direction 0.0718085 -0.197292 0.977711   
     length 1.52607   
     axis -90 7.62852e-016 20   XYZ
    dof rx rz
    limits (-45.0 90.0)
           (-70.0 20.0)
  end
  begin
     id 5 
     name ltoes
     direction 1.53553e-011 -4.22024e-011 1   
     length 0.777832   
     axis -90 7.62852e-016 20   XYZ
    dof rx
    limits (-90.0 20.0)
  end
  begin
     id 6 
     name rhipjoint
     direction -0.727419 -0.612432 0.309497   
     length 2.50079  
     axis 0 0 0  XYZ 
  end
  begin
     id 7 
     name rfemur
     direction -0.34202 -0.939693 0   
     length 6.51665   
     axis 0 0 -20   XYZ
    dof rx ry rz
    limits (-160.0 20.0)
           (-70.0 70.0)
           (-70.0 60.0)
  end
  begin
     id 8 
     name rtibia
     direction -0.34202 -0.939693 0   
     length 6.48919   
     axis 0 0 -20   XYZ
    dof rx
    limits (-10.0 170.0)
 end
 begin
     id 9 
     name rfoot
     direction -0.112205 -0.308282 0.944655   
     length 1.68717  
     axis -90 -7.62852e-016 -20   XYZ
    dof rx rz
    limits (-45.0 90.0)
           (-20.0 70.0)
  end
  begin
     id 10 
     name rtoes
     direction -1.53583e-011 -4.21993e-011 1   
     length 0.846859   
     axis -90 -7.62852e-016 -20   XYZ
    dof rx
    limits (-90.0 20.0)
  end
  begin
     id 11 
     name lowerback
     direction -0.00119603 0.996364 -0.0851956   
     length 1.67242   
     axis 0 0 0   XYZ
    dof rx ry rz
    limits (-20.0 45.0)
           (-30.0 30.0)
           (-30.0 30.0)
  end
  begin
     id 12 
     name upperback
     direction -0.00531001 0.998318 0.0577248   
     length 1.64819   
     axis 0 0 0   XYZ
    dof rx ry rz
    limits (-20.0 45.0)
           (-30.0 30.0)
           (-30.0 30.0)
  end
  begin
     id 13 
     name thorax
     direction -0.00653676 0.995132 0.0983291   
     length 1.67429   
     axis 0 0 0   XYZ
    dof rx ry rz
    limits (-20.0 45.0)
           (-30.0 30.0)
           (-30.0 30.0)
  end
  begin
     id 14 
     name lowerneck
     direction 0.0141424 0.999886 0.00525412   
     length 1.59623   
     axis 0 0 0   XYZ
    dof rx ry rz
    limits (-20.0 45.0)
           (-30.0 30.0)
           (-30.0 30.0)
  end
  begin
     id 15 
     name upperneck
     direction -0.0640064 0.987178 -0.146232   
     length 1.59576   
     axis 0 0 0   XYZ
    dof rx ry rz
    limits (-20.0 45.0)
           (-30.0 30.0)
           (-30.0 30.0)
  end
  begin
     id 16
     name head
     direction -0.0222942 0.998496 -0.0500859  
     length 1.60959  
     axis 0 0 0   XYZ
    dof rx ry rz
    limits (-20.0 45.0)
           (-30.0 30.0)
           (-30.0 30.0)
  end
  begin
     id 17 
     name lclavicle
     direction 0.908549 0.392612 0.142806  
     length 2.80649  
     axis 0 0 0   XYZ
    dof ry rz
    limits (-20.0 10.0)
           (0.0 20.0)
  end
  begin
     id 18 
     name lhumerus
     direction 1 -4.48968e-011 1.08832e-028   
     length 4.2884   
     axis -180 -30 -90   XYZ
    dof rx ry rz
    limits (-60.0 90.0)
           (-90.0 90.0)
           (-90.0 90.0)
  end
  begin
     id 19
     name lradius
     direction 1 -4.48952e-011 -3.02642e-028   
     length 3.06552   
     axis -180 -30 -90   XYZ
    dof rx
    limits (-10.0 170.0)
  end
  begin
     id 20
     name lwrist
     direction 1 -4.49014e-011 1.58672e-027   
     length 1.53276   
     axis -1.65735e-015 90 90   XYZ
    dof ry
    limits (-180.0 0.0)
 end
  begin
     id 21 
     name lhand
     direction 1 -4.48928e-011 3.17344e-027   
     length 0.753045   
     axis -2.02492e-015 90 90   XYZ
    dof rx rz
    limits (-90.0 90.0)
           (-45.0 45.0)
  end
  begin
     id 22 
     name lfingers
     direction 1 -4.48958e-011 6.34687e-027   
     length 0.607124   
     axis -4.04985e-015 90 90   XYZ
    dof rx
    limits (0.0 90.0)
  end
  begin
     id 23
     name lthumb
     direction 0.707107 -6.34905e-011 0.707107   
     length 0.871712   
     axis -90 45 2.85299e-015   XYZ
    dof rx rz
    limits (-45.0 45.0)
           (-45.0 45.0)
  end
  begin
     id 24 
     name rclavicle
     direction -0.885098 0.45949 0.0739604   
     length 2.9478  
     axis 0 0 0   XYZ 
    dof ry rz
    limits (-10.0 20.0)
           (-20.0 0.0)
  end
  begin
     id 25 
     name rhumerus
     direction -1 -4.4898e-011 -2.61739e-027  
     length 4.52172   
     axis -180 30 90   XYZ
    dof rx ry rz
    limits (-90.0 60.0)
           (-90.0 90.0)
           (-90.0 90.0)
  end
  begin
     id 26 
     name rradius
     direction -1 -4.48945e-011 9.02552e-028   
     length 2.8914   
     axis -180 30 90   XYZ
    dof rx
    limits (-10.0 170.0)
  end
  begin
     id 27 
     name rwrist
     direction -1 -4.49018e-011 1.58672e-027   
     length 1.4457   
     axis -1.65735e-015 -90 -90   XYZ
    dof ry
    limits (-180.0 0.0)
  end
  begin
     id 28
     name rhand
     direction -1 -4.48825e-011 3.17344e-027   
     length 0.680541   
     axis -2.02492e-015 -90 -90   XYZ
    dof rx rz
    limits (-90.0 90.0)
           (-45.0 45.0)
  end
  begin
     id 29
     name rfingers
     direction -1 -4.49067e-011 6.34687e-027   
     length 0.54867   
     axis -4.04985e-015 -90 -90   XYZ
    dof rx
    limits (0.0 90.0)
  end
  begin
     id 30
     name rthumb
     direction -0.707107 -6.34833e-011 0.707107   
     length 0.787783   
     axis -90 -45 -2.85299e-015   XYZ
    dof rx rz
    limits (-45.0 45.0)
           (-45.0 45.0)
  end
:hierarchy
  begin
    root lhipjoint rhipjoint lowerback
    lhipjoint lfemur
    lfemur ltibia
    ltibia lfoot
    lfoot ltoes
    rhipjoint rfemur
    rfemur rtibia
    rtibia rfoot
    rfoot rtoes
    lowerback upperback
    upperback thorax
    thorax lowerneck lclavicle rclavicle
    lowerneck upperneck
    upperneck head
    lclavicle lhumerus
    lhumerus lradius
    lradius lwrist
    lwrist lhand lthumb
    lhand lfingers
    rclavicle rhumerus
    rhumerus rradius
    rradius rwrist
    rwrist rhand rthumb
    rhand rfingers
  end

#!OML:ASF E:\emotionWalksFemale\Project 1\Capture day 1\Session 1\Female1.ASF
:FULLY-SPECIFIED
:DEGREES
595
root 7.76629 14.8957 41.6362 -179.927 0.634613 -177.163
lowerback 8.33961 1.97216 -3.5716
upperback -4.51522 2.20063 -1.47192
thorax -9.58329 1.28768 0.0622272
lowerneck -6.74741 -5.08217 -9.45663
upperneck 14.8028 -8.36181 12.0448
head 6.48148 -4.02073 4.72877
rclavicle -5.96354e-016 -4.13472e-014
rhumerus -55.3566 29.4964 -113.586
rradius 41.1598
rwrist -11.1859
rhand 7.75585 -57.6381
rfingers 7.12502
rthumb -147.005 455.361
lclavicle -5.96354e-016 -4.13472e-014
lhumerus -50.667 -8.96493 91.5974
lradius 43.4673
lwrist 1.89743
lhand -2.49111 -32.5456
lfingers 7.12502
lthumb 23.2023 -3.92315
rfemur -11.2734 7.22982 21.5049
rtibia 36.0944
rfoot -22.7548 -21.9423
rtoes -8.4359
lfemur -12.1764 -8.8848 -24.3408
ltibia 37.9214
lfoot -30.509 13.4949
ltoes -22.1491
596
root 7.77072 14.8933 41.6347 -179.998 0.332167 -177.022
lowerback 8.38436 1.86505 -3.40475
upperback -4.47906 2.07164 -1.49724
thorax -9.55735 1.21227 -0.0364985
lowerneck -6.7779 -5.08473 -9.47706
upperneck 14.8575 -8.40436 12.1934
head 6.51596 -4.03564 4.77634
rclavicle -1.19271e-014 3.81667e-014
rhumerus -55.277 29.4106 -113.57
rradius 41.1012
rwrist -10.9958
rhand 8.45048 -58.0348
rfingers 7.12502
rthumb -146.345 455.106
lclavicle -1.19271e-014 3.81667e-014
lhumerus -50.7804 -9.15521 91.6723
lradius 43.5204
lwrist 1.62774
lhand -4.92951 -33.5242
lfingers 7.12502
lthumb 20.8611 -4.62579
rfemur -11.1275 6.9892 21.6789
rtibia 36.0296
rfoot -22.9469 -21.9136
rtoes -8.86997
lfemur -12.2093 -8.89983 -24.1466
ltibia 38.0666
lfoot -30.4687 13.4411
ltoes -22.4627
597
root 7.77656 14.8908 41.6355 -179.989 0.421605 -176.995
lowerback 8.44315 1.88857 -3.50776
upperback -4.51368 2.08931 -1.48131
thorax -9.63598 1.22921 0.0315199
lowerneck -6.7748 -5.0576 -9.61231
upperneck 14.8808 -8.40017 12.4079
head 6.53655 -4.03094 4.87033
rclavicle -4.48259e-014 3.18055e-015
rhumerus -55.3087 29.4224 -113.555
rradius 41.1072
rwrist -10.8889
rhand 8.57511 -58.1309
rfingers 7.12502
rthumb -146.226 455.035
lclavicle -4.48259e-014 3.18055e-015
lhumerus -50.7387 -9.00716 91.585
lradius 43.7249
lwrist 2.22731
lhand -2.14819 -32.302
lfingers 7.12502
lthumb 23.5313 -3.72137
rfemur -11.157 6.9873 21.711
rtibia 35.9794
rfoot -22.7353 -21.8164
rtoes -9.25227
lfemur -12.3139 -8.60754 -24.0683
ltibia 38.2025
lfoot -30.463 13.4766
ltoes -22.6554
598
root 7.78299 14.8875 41.6365 -180.138 0.404352 -176.945
lowerback 8.65397 1.90128 -3.62833
upperback -4.47571 2.07956 -1.45642
thorax -9.72516 1.23128 0.120547
lowerneck -6.84682 -5.08603 -9.57526
upperneck 14.8336 -8.45772 12.5302
head 6.54513 -4.04778 4.89665
rclavicle -1.70955e-014 3.02153e-014
rhumerus -55.2518 29.4165 -113.491
rradius 41.1004
rwrist -10.8379
rhand 8.31987 -58.0039
rfingers 7.12502
rthumb -146.469 455.11
lclavicle -1.70955e-014 3.02153e-014
lhumerus -50.7436 -9.06489 91.7029
lradius 43.6382
lwrist 1.79167
lhand -2.87526 -32.1478
lfingers 7.12502
lthumb 22.8337 -3.47944
rfemur -10.9826 6.83596 21.7982
rtibia 35.9521
rfoot -22.6815 -21.6627
rtoes -9.46786
lfemur -12.2034 -8.54636 -24.0062
ltibia 38.3102
lfoot -30.5243 13.4836
ltoes -23.0584
599
root 7.79024 14.8851 41.6354 -180.335 0.37545 -176.811
lowerback 8.84723 1.89807 -3.64481
upperback -4.38771 2.06091 -1.42247
thorax -9.74418 1.22033 0.165369
lowerneck -6.87704 -5.11711 -9.54604
upperneck 14.6673 -8.50841 12.6899
head 6.51008 -4.06031 4.93751
rclavicle 4.08502e-014 1.59028e-015
rhumerus -55.0941 29.3833 -113.385
rradius 41.0761
rwrist -10.5995
rhand 8.21637 -58.0279
rfingers 7.12502
rthumb -146.567 455.064
lclavicle 4.08502e-014 1.59028e-015
lhumerus -50.613 -8.91879 91.59
lradius 43.8385
lwrist 2.2101
lhand -2.03496 -31.9162
lfingers 7.12502
lthumb 23.6399 -3.34961
rfemur -10.7796 6.68118 21.9809
rtibia 36.0111
rfoot -22.7858 -21.465
rtoes -9.93767
lfemur -12.0036 -8.48 -23.8537
ltibia 38.3709
lfoot -30.5691 13.4533
ltoes -23.6907
600
root 7.79809 14.8856 41.6282 -180.436 -0.174692 -176.805
lowerback 8.9112 1.85401 -3.70399
upperback -4.3081 1.77696 -1.44532
thorax -9.69128 0.997497 0.238407
lowerneck -6.91097 -5.13864 -9.57278
upperneck 14.6108 -8.54124 12.785
head 6.50765 -4.07053 4.969
rclavicle -3.67752e-015 -3.97569e-014
rhumerus -55.0062 29.4045 -113.33
rradius 41.0431
rwrist -10.3981
rhand 8.18028 -57.9896
rfingers 7.12502
rthumb -146.602 455.095
lclavicle -3.67752e-015 -3.97569e-014
lhumerus -50.5915 -9.0993 91.7748
lradius 43.4957
lwrist 1.24865
lhand -6.19418 -33.9674
lfingers 7.12502
lthumb 19.6457 -4.94007
rfemur -10.5844 6.32775 22.0502
rtibia 36.0973
rfoot -23.0709 -21.5751
rtoes -9.53099
lfemur -11.9006 -8.77149 -23.8024
ltibia 38.3523
lfoot -30.4719 13.2505
ltoes -23.5856
601
root 7.79648 14.8835 41.6361 -180.413 0.373578 -176.949
lowerback 9.03507 1.92509 -3.9033
upperback -4.33665 2.04938 -1.50707
thorax -9.80694 1.22842 0.215833
lowerneck -7.07565 -5.19358 -9.52372
upperneck 14.7561 -8.61528 12.7062
head 6.58636 -4.10082 4.92433
rclavicle -1.66979e-014 0
rhumerus -54.9852 29.5079 -113.341
rradius 40.9774
rwrist -10.4767
rhand 8.4615 -58.0471
rfingers 7.12502
rthumb -146.334 455.096
lclavicle -1.66979e-014 0
lhumerus -50.455 -9.18766 91.8225
lradius 43.2673
lwrist 0.932224
lhand -5.43831 -34.0006
lfingers 7.12502
lthumb 20.3722 -5.04922
rfemur -10.8816 6.36719 21.7979
rtibia 36.2691
rfoot -22.9193 -21.3555
rtoes -10.113
lfemur -11.8998 -8.58547 -24.0073
ltibia 38.3108
lfoot -30.4872 13.4861
ltoes -22.5753
